<svg xmlns="http://www.w3.org/2000/svg" xmlns:xlink="http://www.w3.org/1999/xlink" width="500" zoomAndPan="magnify" viewBox="0 0 375 187.499995" height="250" preserveAspectRatio="xMidYMid meet" version="1.0"><defs><g/><clipPath id="bde5fb0b35"><path d="M 337.132812 137.101562 L 345.171875 137.101562 L 345.171875 145.140625 L 337.132812 145.140625 Z M 337.132812 137.101562 " clip-rule="nonzero"/></clipPath><clipPath id="b0794826ed"><path d="M 341.152344 137.101562 C 338.933594 137.101562 337.132812 138.898438 337.132812 141.121094 C 337.132812 143.339844 338.933594 145.140625 341.152344 145.140625 C 343.371094 145.140625 345.171875 143.339844 345.171875 141.121094 C 345.171875 138.898438 343.371094 137.101562 341.152344 137.101562 Z M 341.152344 137.101562 " clip-rule="nonzero"/></clipPath><clipPath id="3652ca0767"><path d="M 327.53125 137.101562 L 335.574219 137.101562 L 335.574219 145.140625 L 327.53125 145.140625 Z M 327.53125 137.101562 " clip-rule="nonzero"/></clipPath><clipPath id="920bb76021"><path d="M 331.554688 137.101562 C 329.332031 137.101562 327.53125 138.898438 327.53125 141.121094 C 327.53125 143.339844 329.332031 145.140625 331.554688 145.140625 C 333.773438 145.140625 335.574219 143.339844 335.574219 141.121094 C 335.574219 138.898438 333.773438 137.101562 331.554688 137.101562 Z M 331.554688 137.101562 " clip-rule="nonzero"/></clipPath><clipPath id="2d75c417eb"><path d="M 317.933594 137.101562 L 325.976562 137.101562 L 325.976562 145.140625 L 317.933594 145.140625 Z M 317.933594 137.101562 " clip-rule="nonzero"/></clipPath><clipPath id="712d40fb8b"><path d="M 321.953125 137.101562 C 319.734375 137.101562 317.933594 138.898438 317.933594 141.121094 C 317.933594 143.339844 319.734375 145.140625 321.953125 145.140625 C 324.175781 145.140625 325.976562 143.339844 325.976562 141.121094 C 325.976562 138.898438 324.175781 137.101562 321.953125 137.101562 Z M 321.953125 137.101562 " clip-rule="nonzero"/></clipPath></defs><g fill="#f13939" fill-opacity="1"><g transform="translate(29.827202, 137.134296)"><g><path d="M -12.625 3.578125 C -14.34375 6.078125 -13.40625 7.640625 -8.421875 6.546875 C -4.203125 5.609375 1.5625 5.296875 6.859375 4.515625 C 12 3.734375 13.71875 1.40625 17.140625 -3.265625 C 31.78125 -24.15625 57.8125 -62.015625 70.90625 -81.96875 C 79.15625 -93.5 78.6875 -98.953125 73.703125 -102.0625 C 71.6875 -103.3125 69.5 -104.40625 66.078125 -105.8125 C 64.203125 -106.59375 63.421875 -106.4375 62.171875 -104.71875 C 43.015625 -77.609375 4.828125 -22.125 -12.625 3.578125 Z M -12.625 3.578125 "/></g></g></g><g fill="#f13939" fill-opacity="1"><g transform="translate(77.356654, 137.134296)"><g><path d="M 1.25 2.953125 C 16.203125 -18.390625 37.40625 -47.53125 59.375 -73.390625 C 53.921875 -53.140625 47.6875 -28.203125 42.859375 -6.546875 C 41.140625 0.625 43.171875 2.5 47.21875 2.5 C 50.171875 2.5 54.234375 1.5625 61.234375 -0.625 C 65.140625 -1.875 66.84375 -3.265625 69.8125 -8.421875 C 85.234375 -35.375 108.453125 -67.15625 135.265625 -100.984375 C 136.03125 -101.90625 135.578125 -102.6875 134.171875 -102.84375 C 130.109375 -103.46875 128.25 -102.53125 126.0625 -100.046875 C 105.34375 -76.671875 88.203125 -57.03125 71.21875 -33.96875 C 75.890625 -53.765625 80.875 -73.703125 83.6875 -87.578125 C 85.703125 -95.984375 85.390625 -99.890625 81.1875 -102.6875 C 78.375 -104.5625 74.015625 -106.4375 70.125 -107.203125 C 68.5625 -107.515625 67.15625 -106.890625 65.296875 -105.03125 C 50.640625 -89.75 10.90625 -33.03125 -9.34375 0.3125 C -10.75 2.65625 -11.53125 4.515625 -11.53125 5.609375 C -11.53125 6.703125 -11.0625 7.171875 -9.65625 7.171875 C -6.390625 7.171875 -0.78125 5.765625 1.25 2.953125 Z M 1.25 2.953125 "/></g></g></g><g fill="#000000" fill-opacity="1"><g transform="translate(172.415706, 134.671103)"><g><path d="M 34.515625 -27.75 L 34.515625 -44.5 L 43.28125 -44.5 L 43.28125 0 L 34.515625 0 L 34.515625 -20.265625 L 14.578125 -20.265625 L 14.578125 0 L 5.78125 0 L 5.78125 -44.5 L 14.578125 -44.5 L 14.578125 -27.75 Z M 34.515625 -27.75 "/></g></g><g transform="translate(221.509638, 134.671103)"><g><path d="M 23.59375 0.640625 C 17.457031 0.640625 12.910156 -0.8125 9.953125 -3.71875 C 6.992188 -6.632812 5.515625 -10.953125 5.515625 -16.671875 L 5.515625 -44.5 L 14.125 -44.5 L 14.125 -16.734375 C 14.125 -13.492188 14.90625 -11.0625 16.46875 -9.4375 C 18.03125 -7.8125 20.40625 -7 23.59375 -7 C 29.894531 -7 33.046875 -10.242188 33.046875 -16.734375 L 33.046875 -44.5 L 41.65625 -44.5 L 41.65625 -16.671875 C 41.65625 -10.953125 40.175781 -6.632812 37.21875 -3.71875 C 34.257812 -0.8125 29.71875 0.640625 23.59375 0.640625 Z M 23.59375 0.640625 "/></g></g><g transform="translate(268.686076, 134.671103)"><g><path d="M 14.578125 -19.53125 L 14.578125 -7.359375 L 35.828125 -7.359375 L 35.828125 0 L 5.78125 0 L 5.78125 -44.5 L 35.328125 -44.5 L 35.328125 -37.125 L 14.578125 -37.125 L 14.578125 -26.71875 L 32.71875 -26.71875 L 32.71875 -19.53125 Z M 14.578125 -19.53125 "/></g></g><g transform="translate(306.944645, 134.671103)"><g><path d="M 19.71875 0.640625 C 16.632812 0.640625 13.890625 0.257812 11.484375 -0.5 C 9.078125 -1.257812 7.070312 -2.257812 5.46875 -3.5 C 3.875 -4.738281 2.648438 -6.097656 1.796875 -7.578125 L 6.640625 -13.484375 L 7.390625 -13.484375 C 8.734375 -11.492188 10.429688 -9.910156 12.484375 -8.734375 C 14.546875 -7.554688 16.957031 -6.96875 19.71875 -6.96875 C 22.070312 -6.96875 23.847656 -7.460938 25.046875 -8.453125 C 26.242188 -9.453125 26.84375 -10.820312 26.84375 -12.5625 C 26.84375 -13.625 26.648438 -14.507812 26.265625 -15.21875 C 25.878906 -15.925781 25.238281 -16.53125 24.34375 -17.03125 C 23.457031 -17.539062 22.25 -17.976562 20.71875 -18.34375 L 15 -19.65625 C 11.007812 -20.570312 8.035156 -22.085938 6.078125 -24.203125 C 4.117188 -26.328125 3.140625 -29.082031 3.140625 -32.46875 C 3.140625 -34.988281 3.765625 -37.203125 5.015625 -39.109375 C 6.273438 -41.015625 8.109375 -42.492188 10.515625 -43.546875 C 12.921875 -44.609375 15.796875 -45.140625 19.140625 -45.140625 C 22.566406 -45.140625 25.503906 -44.6875 27.953125 -43.78125 C 30.398438 -42.875 32.460938 -41.488281 34.140625 -39.625 L 29.796875 -33.65625 L 29.03125 -33.65625 C 27.769531 -34.976562 26.328125 -35.96875 24.703125 -36.625 C 23.085938 -37.28125 21.234375 -37.609375 19.140625 -37.609375 C 16.722656 -37.609375 14.882812 -37.179688 13.625 -36.328125 C 12.375 -35.484375 11.75 -34.3125 11.75 -32.8125 C 11.75 -31.40625 12.1875 -30.285156 13.0625 -29.453125 C 13.945312 -28.628906 15.476562 -27.984375 17.65625 -27.515625 L 23.5 -26.296875 C 27.820312 -25.378906 30.957031 -23.828125 32.90625 -21.640625 C 34.851562 -19.460938 35.828125 -16.617188 35.828125 -13.109375 C 35.828125 -10.335938 35.226562 -7.921875 34.03125 -5.859375 C 32.832031 -3.796875 31.023438 -2.195312 28.609375 -1.0625 C 26.191406 0.0703125 23.226562 0.640625 19.71875 0.640625 Z M 19.71875 0.640625 "/></g></g></g><g clip-path="url(#bde5fb0b35)"><g clip-path="url(#b0794826ed)"><path fill="#f13939" d="M 337.132812 137.101562 L 345.171875 137.101562 L 345.171875 145.140625 L 337.132812 145.140625 Z M 337.132812 137.101562 " fill-opacity="1" fill-rule="nonzero"/></g></g><g clip-path="url(#3652ca0767)"><g clip-path="url(#920bb76021)"><path fill="#00bf63" d="M 327.53125 137.101562 L 335.574219 137.101562 L 335.574219 145.140625 L 327.53125 145.140625 Z M 327.53125 137.101562 " fill-opacity="1" fill-rule="nonzero"/></g></g><g clip-path="url(#2d75c417eb)"><g clip-path="url(#712d40fb8b)"><path fill="#5e17eb" d="M 317.933594 137.101562 L 325.976562 137.101562 L 325.976562 145.140625 L 317.933594 145.140625 Z M 317.933594 137.101562 " fill-opacity="1" fill-rule="nonzero"/></g></g></svg>